# xmcd
#
# Track frame offsets:
#	150
#	15586
#	32834
#	49485
#	66414
#	87780
#	104554
#	122615
#	137896
#	158077
#	176371
#	193127
#	214840
#	232815
#	251470
#	267786
#	285802
#	312241
#
# Disc length: 4410 seconds
#
# Revision: 1
# Processed by: cddbd v1.5.2PL0 Copyright (c) Steve Scherf et al.
# Submitted via: EasyCDDAExtractor 6.0.0.1
#
DISCID=f8113812
DTITLE=Larry Schuba and Western Union - Die Grossen Single Hits
DYEAR=1995
DGENRE=Country
TTITLE0=Mädchen Aus Berlin
TTITLE1=Bunte Tränen
TTITLE2=Fräulein
TTITLE3=Transit Cowboy
TTITLE4=Liebe
TTITLE5=Ich Möcht' So Gern Mal Nach Nashville
TTITLE6=Nach Süden
TTITLE7=Gottseidank Ist Es Endlich Wieder Sommer
TTITLE8=Bärenstark
TTITLE9=Lach Mal Wieder
TTITLE10=Auf Der Autobahn
TTITLE11=Gott Ich Hoff' Der Tag Wird Gut
TTITLE12=Wieder Unterwegs
TTITLE13=Baby Sag' Ja
TTITLE14=Bi-Ba-Baby
TTITLE15=Du Bist Der Grund Dafür
TTITLE16=Nur Ein Kuss
TTITLE17=Danke
EXTD=
EXTT0=
EXTT1=
EXTT2=
EXTT3=
EXTT4=
EXTT5=
EXTT6=
EXTT7=
EXTT8=
EXTT9=
EXTT10=
EXTT11=
EXTT12=
EXTT13=
EXTT14=
EXTT15=
EXTT16=
EXTT17=
PLAYORDER=
